# xmcd
#
# Track frame offsets: 
#        150
#        32634
#        59320
#        99075
#        135001
#        156289
#        193360
#        243046
#
# Disc length: 3738 seconds
#
# Revision: 0
# Processed by: cddbd v1.5.2PL0 Copyright (c) Steve Scherf et al.
# Submitted via: ExactAudioCopy v0.99pb4
#
DISCID=5a0e9808
DTITLE=Maju - Maju-4
DYEAR=2006
DGENRE=Jazz
TTITLE0=Rst02
TTITLE1=93
TTITLE2=Hktm
TTITLE3=Cld
TTITLE4=#4
TTITLE5=0623
TTITLE6=Osk
TTITLE7=Grn
EXTD=
EXTT0=
EXTT1=
EXTT2=
EXTT3=
EXTT4=
EXTT5=
EXTT6=
EXTT7=
PLAYORDER=
